<mxfile host="app.diagrams.net" modified="2023-12-16T21:36:07.974Z" agent="Mozilla/5.0 (Macintosh; Intel Mac OS X 10_15_7) AppleWebKit/537.36 (KHTML, like Gecko) Chrome/119.0.0.0 Safari/537.36 OPR/105.0.0.0" version="22.1.11" etag="KPzPJqXWKk5mn4icfwgd" type="github">
  <diagram name="Page-1" id="vSUKiOQem5P4ab08vUiI">
    <mxGraphModel>
      <root>
        <mxCell id="0" />
        <mxCell id="1" parent="0" />
      </root>
    </mxGraphModel>
  </diagram>
</mxfile>
